<?xml version="1.0" standalone="no"?>
<!DOCTYPE svg PUBLIC "-//W3C//DTD SVG 20010904//EN"
 "http://www.w3.org/TR/2001/REC-SVG-20010904/DTD/svg10.dtd">
<svg version="1.0" xmlns="http://www.w3.org/2000/svg"
 width="500.000000pt" height="500.000000pt" viewBox="0 0 500.000000 500.000000"
 preserveAspectRatio="xMidYMid meet">
<metadata>
Created by potrace 1.11, written by Peter Selinger 2001-2013
</metadata>
<g transform="translate(0.000000,500.000000) scale(0.100000,-0.100000)"
fill="#000000" stroke="none">
<path d="M0 4067 l0 -933 114 -11 c82 -8 128 -17 161 -33 41 -20 52 -21 85
-11 20 6 49 11 64 11 15 0 28 6 30 13 2 6 13 53 23 102 13 60 24 90 33 90 28
0 40 -122 18 -170 -10 -22 -9 -28 3 -36 21 -13 28 -11 56 19 14 15 28 22 30
16 14 -39 38 -48 185 -69 34 -5 61 -30 63 -57 0 -5 3 -8 8 -8 4 0 12 0 17 0 6
0 10 12 11 28 0 15 3 22 5 15 3 -7 12 -9 20 -6 8 3 14 -1 14 -11 0 -9 4 -16 9
-16 4 0 7 -10 6 -22 -1 -13 0 -15 2 -6 2 9 12 19 21 21 16 4 16 5 0 6 -10 1
-19 13 -23 31 -4 17 -11 30 -16 30 -15 0 -51 40 -36 41 6 0 2 4 -10 9 -28 11
-30 46 -4 53 35 9 102 -10 130 -37 44 -42 44 -43 101 105 14 38 29 60 46 68
13 6 27 19 30 28 3 10 15 42 27 72 20 52 20 54 2 67 -17 13 -16 14 12 14 24 0
33 5 38 23 7 23 9 29 45 112 33 77 41 90 97 147 28 30 53 65 55 79 2 16 10 25
26 27 12 2 20 8 16 13 -3 5 7 22 23 38 40 41 53 65 43 82 -6 9 -1 22 14 39 41
43 66 94 66 133 0 31 4 39 25 47 40 15 51 50 29 99 -11 25 -25 41 -35 41 -41
0 -22 66 25 83 15 6 17 14 12 50 -6 39 -4 45 29 77 25 24 31 36 22 42 -17 11
-87 10 -87 -1 0 -13 -41 -21 -68 -14 -12 3 -25 15 -28 27 -3 12 -13 22 -23 22
-17 0 -17 -2 -4 -23 9 -13 12 -23 8 -23 -4 0 -2 -6 4 -14 12 -15 2 -27 -33
-40 -15 -5 -17 -4 -7 7 14 18 9 56 -10 71 -25 20 -34 69 -29 161 l5 89 38 -44
c21 -25 54 -71 73 -102 20 -32 38 -58 42 -58 11 0 41 80 36 94 -3 7 -17 19
-31 25 -14 6 -24 14 -21 16 7 7 48 -7 48 -16 0 -5 9 -9 20 -9 18 0 27 26 21
63 -3 19 41 4 51 -18 9 -19 19 -25 44 -25 l33 0 -5 -51 c-3 -40 0 -54 17 -72
18 -19 18 -23 4 -33 -19 -14 -19 -24 0 -24 24 0 28 25 11 58 -14 28 -14 31 8
51 17 16 30 20 50 15 31 -7 32 -2 9 33 -17 26 -17 26 5 21 18 -5 22 -3 18 9
-3 8 1 30 10 48 19 41 14 59 -30 108 l-34 37 -956 0 -956 0 0 -933z m1620 761
c0 -4 -4 -8 -9 -8 -6 0 -12 4 -15 8 -3 5 1 9 9 9 8 0 15 -4 15 -9z m-164 -263
c-16 -12 -16 -13 0 -19 16 -6 16 -7 -1 -19 -24 -18 -16 -52 13 -51 12 0 22 -4
22 -9 0 -11 -71 0 -84 14 -6 5 -18 9 -28 9 -9 0 -29 12 -44 27 -25 25 -26 27
-9 40 10 7 35 15 54 19 20 3 41 7 46 8 6 2 19 1 29 -2 18 -5 18 -6 2 -17z
m100 -102 c-10 -10 -19 5 -10 18 6 11 8 11 12 0 2 -7 1 -15 -2 -18z m40 -175
c4 -5 2 -8 -5 -8 -7 0 -9 -5 -5 -11 4 -7 0 -9 -14 -5 -17 6 -19 3 -15 -15 4
-16 2 -20 -8 -17 -11 4 -16 31 -10 58 2 9 48 6 57 -2z m-1528 -426 c3 -30 1
-32 -27 -32 -26 0 -31 4 -31 23 0 54 53 62 58 9z"/>
<path d="M1960 4973 c46 -52 47 -52 103 -32 63 23 115 25 124 4 3 -9 -9 -50
-26 -93 -31 -79 -29 -102 8 -82 23 12 41 6 41 -13 0 -7 8 -17 18 -23 14 -9 23
-8 41 7 24 20 25 18 -24 34 -8 2 -15 9 -15 15 0 6 5 8 10 5 6 -4 29 -4 51 0
29 5 39 11 35 21 -3 8 -2 14 2 15 4 0 18 2 32 4 14 2 52 4 85 5 33 1 80 11
103 21 34 14 49 16 64 8 11 -6 56 -12 101 -14 290 -14 298 -14 301 -2 23 80
33 105 49 125 l20 22 -167 0 c-159 0 -167 -1 -161 -19 3 -10 -1 -23 -10 -31
-11 -9 -12 -17 -5 -30 15 -29 13 -31 -35 -26 -47 4 -75 19 -75 41 0 7 -15 24
-34 39 -34 26 -76 32 -123 20 -31 -9 -29 -22 2 -16 38 7 30 -6 -12 -17 -30 -9
-38 -8 -49 7 -10 14 -10 18 4 23 9 4 -95 8 -232 8 l-250 2 24 -28z m588 -33
c10 -16 10 -20 -2 -20 -17 0 -38 24 -29 33 10 11 17 8 31 -13z m-245 -127 c-7
-2 -19 -2 -25 0 -7 3 -2 5 12 5 14 0 19 -2 13 -5z"/>
<path d="M2660 4988 c1 -15 49 -52 57 -44 3 3 1 12 -5 19 -9 10 -8 17 0 25 9
9 5 12 -20 12 -19 0 -32 -5 -32 -12z"/>
<path d="M3184 4985 c-4 -9 1 -24 11 -35 15 -16 15 -24 5 -55 -7 -20 -9 -39
-6 -42 10 -10 36 19 36 41 0 11 5 28 10 36 8 13 11 11 16 -7 9 -31 28 -29 22
2 -3 13 -1 22 3 19 5 -3 9 2 9 10 0 9 7 16 16 16 9 0 14 6 12 13 -3 7 -28 13
-66 15 -50 2 -64 0 -68 -13z"/>
<path d="M3377 4993 c-8 -7 11 -33 23 -33 5 0 22 -13 38 -30 26 -25 35 -29 64
-23 18 3 47 13 63 21 42 22 54 25 109 23 49 -2 76 11 76 35 0 11 -34 14 -183
14 -101 0 -187 -3 -190 -7z"/>
<path d="M4435 4982 c-13 -12 -19 -14 -22 -5 -3 9 -10 10 -23 3 -10 -5 -26 -7
-34 -4 -9 4 -22 2 -29 -4 -6 -5 -27 -13 -44 -17 -18 -3 -33 -13 -33 -20 0 -12
-6 -12 -34 0 -23 10 -37 11 -41 5 -4 -6 -10 -8 -15 -5 -9 6 -60 -90 -60 -113
0 -12 15 -13 88 -8 83 7 88 9 118 41 53 59 77 43 94 -62 5 -31 15 -60 22 -64
9 -6 6 -20 -12 -56 -14 -26 -26 -51 -28 -55 -2 -5 16 -8 40 -8 24 0 61 -9 83
-19 50 -23 120 -94 112 -114 -3 -9 -33 -19 -79 -26 -40 -7 -85 -15 -101 -18
-19 -4 -39 2 -67 21 l-40 26 0 -46 c0 -36 -8 -60 -36 -106 -33 -54 -35 -61
-21 -75 12 -13 13 -20 4 -35 -14 -22 -4 -31 61 -50 28 -8 42 -18 40 -28 -1 -8
13 -30 30 -49 18 -19 31 -39 29 -46 -8 -20 26 -53 89 -84 102 -51 203 -66 367
-54 l77 6 0 544 0 544 -258 -1 c-229 -1 -261 -3 -277 -18z"/>
<path d="M2640 4944 c0 -8 5 -12 10 -9 6 4 8 11 5 16 -9 14 -15 11 -15 -7z"/>
<path d="M3320 4951 c0 -5 5 -13 10 -16 6 -3 10 -2 10 4 0 5 -4 13 -10 16 -5
3 -10 2 -10 -4z"/>
<path d="M3724 4802 c-12 -2 -24 -12 -27 -24 -5 -16 -2 -19 14 -15 12 3 19 0
19 -9 0 -8 -6 -14 -12 -14 -9 0 -9 -3 1 -9 8 -5 36 -9 63 -9 42 -1 46 1 34 14
-8 7 -21 12 -28 9 -13 -5 -29 16 -40 50 -2 6 -13 9 -24 7z"/>
<path d="M2048 4762 c-17 -2 -28 -9 -28 -19 0 -11 6 -14 23 -9 16 4 28 -1 41
-15 18 -21 37 -21 44 -1 2 7 -5 15 -15 19 -10 4 -22 12 -28 18 -5 6 -22 9 -37
7z"/>
<path d="M3943 4682 c-10 -7 -10 -12 0 -27 16 -21 32 -15 40 15 5 21 -16 27
-40 12z"/>
<path d="M1825 4640 c3 -5 8 -10 11 -10 2 0 4 5 4 10 0 6 -5 10 -11 10 -5 0
-7 -4 -4 -10z"/>
<path d="M4131 4476 c-8 -9 -8 -16 -2 -20 6 -4 15 3 21 14 12 23 -2 27 -19 6z"/>
<path d="M1818 4437 c8 -9 19 -14 26 -11 7 3 21 -4 31 -16 18 -20 41 -25 69
-14 19 7 21 40 4 42 -7 1 -42 5 -78 8 -58 6 -63 5 -52 -9z"/>
<path d="M2135 4198 c-10 -33 -11 -33 -60 -29 -108 9 -198 -7 -245 -45 -112
-90 -173 -175 -163 -226 3 -15 9 -25 14 -22 5 3 12 -2 15 -10 3 -9 14 -16 24
-16 11 0 21 -4 24 -9 7 -10 151 -9 161 1 4 4 17 3 30 -2 13 -5 32 -6 43 -3 14
3 24 -2 31 -16 12 -21 5 -27 -23 -22 -5 1 -3 -6 4 -16 22 -28 24 -29 17 -11
-4 11 0 19 14 23 14 5 18 12 13 27 -9 29 27 20 42 -10 7 -15 14 -20 18 -13 4
6 18 11 32 11 13 0 24 4 24 10 0 5 16 12 35 16 21 4 35 12 35 21 0 9 6 13 15
10 8 -4 17 -2 20 3 4 6 13 10 22 10 9 0 38 17 65 37 48 37 71 79 51 92 -21 13
-43 71 -43 112 0 34 -3 40 -16 35 -9 -4 -22 0 -28 8 -6 8 -29 17 -51 20 -22 3
-42 6 -45 6 -3 1 4 5 15 10 15 6 9 9 -27 9 -25 1 -48 6 -50 12 -2 6 -8 -5 -13
-23z"/>
<path d="M3969 3958 c-24 -24 -52 -58 -61 -76 -9 -18 -33 -41 -52 -53 -41 -24
-53 -48 -28 -55 9 -3 49 -20 87 -39 154 -75 278 -92 366 -52 19 9 48 17 64 19
28 3 30 6 27 38 -5 49 -46 105 -101 136 -25 15 -58 38 -72 51 -19 17 -42 26
-83 30 -41 4 -60 11 -67 24 -15 28 -33 23 -80 -23z m223 -170 c-9 -9 -12 -7
-12 12 0 19 3 21 12 12 9 -9 9 -15 0 -24z"/>
<path d="M1940 3760 c0 -5 5 -10 10 -10 6 0 10 5 10 10 0 6 -4 10 -10 10 -5 0
-10 -4 -10 -10z"/>
<path d="M1815 3750 c-7 -12 2 -30 16 -30 5 0 9 9 9 20 0 21 -15 27 -25 10z"/>
<path d="M1868 3753 c6 -2 18 -2 25 0 6 3 1 5 -13 5 -14 0 -19 -2 -12 -5z"/>
<path d="M2830 3185 c-14 -16 -3 -20 19 -6 8 5 9 11 3 15 -5 3 -15 -1 -22 -9z"/>
<path d="M3025 3154 c9 -9 19 -13 23 -10 3 4 0 11 -8 16 -24 15 -33 11 -15 -6z"/>
<path d="M3087 3149 c4 -15 0 -19 -23 -19 -28 -1 -28 -1 -10 -15 11 -8 17 -17
14 -21 -3 -3 -18 7 -32 22 -14 16 -29 25 -33 20 -4 -4 -1 -11 7 -16 8 -6 10
-10 4 -10 -6 0 -17 7 -24 15 -7 8 -16 12 -22 9 -5 -3 -4 -12 3 -20 17 -21 -4
-17 -29 6 -26 25 -51 28 -31 4 12 -15 11 -16 -11 -9 -13 4 -30 14 -38 21 -7 8
-18 14 -25 14 -6 0 -4 -5 4 -12 8 -7 21 -21 28 -30 10 -14 9 -16 -7 -11 -12 3
-30 -4 -46 -18 -14 -12 -35 -23 -46 -24 -22 -2 -27 10 -7 19 6 4 1 4 -13 1
-14 -2 -33 -5 -42 -5 -10 0 -18 -7 -18 -15 0 -18 -36 -20 -46 -3 -4 7 -3 8 5
4 13 -8 47 21 37 32 -4 3 -11 0 -17 -8 -8 -13 -11 -13 -23 3 -7 9 -22 17 -32
17 -18 1 -18 1 -1 11 14 8 23 7 36 -5 13 -12 20 -13 29 -4 9 9 13 7 18 -5 8
-21 21 -22 41 -2 10 11 19 13 27 6 7 -6 17 -6 26 -1 8 6 26 10 40 10 16 0 21
3 14 10 -7 7 -20 7 -35 2 -26 -9 -59 -5 -59 8 0 4 -9 10 -21 13 -20 5 -20 5
-3 -14 15 -17 15 -19 1 -19 -9 0 -18 4 -22 9 -9 15 -90 7 -119 -13 -15 -9 -24
-21 -21 -26 3 -5 0 -12 -6 -16 -8 -4 -9 -3 -5 4 5 8 -2 12 -19 12 -14 0 -24
-4 -21 -9 3 -5 0 -14 -8 -20 -11 -9 -15 -9 -19 1 -17 49 -177 -219 -177 -297
0 -11 -5 -26 -12 -33 -7 -7 -8 -12 -2 -12 5 0 2 -4 -5 -9 -16 -10 -7 -13 70
-26 19 -3 44 -11 54 -19 18 -13 17 -13 -10 -11 -16 2 -38 -3 -49 -11 -20 -14
-20 -14 2 -14 12 0 22 -3 22 -6 0 -10 -28 -34 -39 -34 -6 0 -11 -6 -11 -13 0
-18 -110 -14 -174 7 -54 17 -77 15 -26 -3 17 -6 29 -15 26 -20 -4 -5 -2 -11 4
-13 8 -2 16 -27 19 -60 1 -4 10 -10 21 -13 11 -4 18 -10 16 -14 -7 -11 53 -44
70 -37 7 3 14 2 14 -3 0 -4 10 -13 23 -19 20 -10 19 -11 -14 -11 -23 -1 -39
-7 -43 -16 -3 -10 1 -15 12 -15 15 -1 15 -2 2 -13 -8 -7 -20 -21 -26 -32 -7
-13 -24 -21 -48 -23 -46 -4 -43 -26 3 -28 22 -1 40 5 54 19 14 14 22 17 25 9
2 -7 10 -12 17 -12 9 0 5 -9 -11 -25 -29 -29 -63 -49 -72 -41 -3 3 1 6 8 6 10
0 11 3 4 10 -17 17 -43 2 -37 -21 5 -18 20 -24 51 -20 17 3 15 -16 -3 -23 -8
-3 -15 -11 -15 -17 0 -8 7 -6 18 4 20 18 52 23 52 8 0 -5 -9 -11 -21 -14 -21
-6 -18 -27 4 -27 7 0 6 4 -3 10 -8 5 -10 10 -5 10 6 0 17 -5 25 -10 12 -7 7
-12 -23 -25 -46 -19 -47 -26 -4 -19 31 5 31 5 12 -11 -20 -17 -19 -17 8 -12
l29 5 -8 -52 c-4 -28 -7 -66 -8 -85 -1 -30 -4 -34 -28 -35 -16 -1 -28 2 -28 6
0 4 -11 -2 -25 -14 -14 -12 -25 -26 -25 -32 0 -6 4 -5 8 2 10 14 71 34 83 26
17 -10 9 -25 -11 -19 -13 4 -23 0 -32 -14 -15 -25 -43 -27 -65 -6 -8 8 -20 12
-26 8 -6 -4 -8 0 -4 10 7 20 3 21 -24 7 -13 -7 -19 -7 -19 0 0 5 -8 10 -17 10
-15 0 -16 2 -3 10 13 8 13 11 1 22 -10 9 -15 10 -18 2 -7 -21 -41 -4 -36 17 4
15 -1 20 -26 25 -27 6 -29 9 -19 22 10 12 10 16 1 19 -7 3 -13 12 -13 22 0 25
-37 61 -62 61 -16 0 -19 3 -11 11 13 13 -10 63 -44 95 -15 14 -20 25 -13 29
17 10 11 25 -10 25 -11 0 -20 6 -20 14 0 17 -21 26 -63 27 -29 1 -30 2 -8 8
38 10 42 40 10 70 -14 14 -28 35 -30 46 -5 24 -47 31 -99 16 -19 -5 -60 -12
-90 -15 -46 -4 -52 -3 -35 7 11 7 21 18 23 26 3 12 0 12 -12 2 -15 -13 -49 -5
-141 34 -16 7 -41 16 -55 20 -14 4 -46 16 -73 27 -38 17 -46 24 -42 39 5 13 1
19 -10 19 -11 0 -15 5 -11 16 9 23 -56 47 -105 39 -50 -9 -53 -8 -57 4 -2 6 7
11 19 11 32 0 11 19 -24 22 -15 1 -27 6 -27 10 0 4 -7 8 -15 8 -8 0 -15 5 -15
11 0 6 -7 8 -16 5 -9 -3 -28 3 -43 13 -15 11 -43 22 -64 26 -20 4 -37 11 -37
15 0 4 -19 12 -43 19 -23 7 -49 19 -57 26 -30 26 -61 28 -76 6 -20 -29 -38
-27 -30 3 7 27 -4 38 -56 57 -20 7 -35 16 -32 21 3 4 -4 8 -15 8 -11 0 -27 7
-36 16 -8 9 -21 14 -28 11 -8 -3 -18 2 -24 11 -6 10 -33 26 -62 37 -28 11 -51
23 -51 27 0 4 -5 8 -11 8 -6 0 -1 -14 11 -30 12 -17 30 -30 40 -30 10 0 22 -5
25 -11 11 -16 13 -59 4 -59 -4 0 -11 -16 -15 -35 -5 -26 -2 -41 10 -54 20 -22
20 -26 -8 -85 l-22 -49 -29 57 c-31 62 -52 73 -113 61 -54 -10 -75 -8 -84 10
-7 12 -81 55 -95 55 -2 0 -3 -182 -3 -405 l0 -405 24 6 c34 8 69 -4 62 -22 -6
-17 -2 -17 89 -4 60 9 74 8 102 -7 18 -10 33 -21 33 -25 0 -5 7 -8 15 -8 20 0
37 -35 33 -68 l-3 -26 83 3 83 3 -7 -29 c-4 -15 -29 -49 -55 -75 -45 -43 -52
-46 -90 -43 -23 2 -46 9 -50 16 -9 14 -69 23 -69 10 0 -6 5 -13 10 -16 6 -4 8
-10 5 -15 -3 -5 1 -12 8 -17 14 -8 31 -42 29 -55 -3 -13 16 -9 21 5 3 6 3 -4
0 -23 -3 -19 -7 -37 -9 -39 -3 -4 -64 58 -64 65 0 2 -14 17 -30 33 -22 20 -27
31 -18 34 10 4 9 9 -5 17 -9 6 -17 21 -17 34 0 21 -7 27 -62 54 -5 2 -8 -10
-8 -27 0 -29 -2 -31 -39 -31 -76 0 -71 20 -71 -296 l0 -284 30 0 c17 0 33 7
39 18 8 13 10 13 11 3 0 -12 3 -12 12 -3 7 7 18 12 25 12 21 0 15 -20 -10 -29
-12 -5 -35 -21 -52 -35 -16 -14 -36 -26 -42 -26 -7 0 -13 -8 -13 -19 0 -26 64
-40 213 -47 152 -6 154 -7 197 -45 19 -18 54 -41 78 -51 38 -17 50 -18 92 -8
40 10 53 9 79 -4 17 -9 31 -22 31 -29 1 -6 14 -28 30 -47 17 -19 30 -44 30
-56 0 -24 17 -34 60 -34 33 0 62 -27 81 -74 17 -43 16 -42 40 -13 11 15 31 27
43 27 12 0 31 7 42 15 18 14 17 14 -13 15 -17 0 -34 4 -37 9 -8 12 24 134 39
149 10 11 16 8 34 -17 12 -17 29 -31 37 -31 8 0 14 -6 15 -12 3 -60 23 -93 34
-57 4 13 13 38 20 54 41 101 51 178 31 248 -7 23 -5 27 13 27 13 0 26 -10 33
-25 6 -14 14 -25 17 -25 8 0 41 38 41 48 0 4 16 24 35 45 19 21 35 48 35 61 0
26 30 41 138 72 34 9 62 20 62 24 0 9 80 43 86 37 2 -2 -24 -26 -57 -52 -88
-69 -121 -105 -146 -157 -20 -43 -40 -118 -31 -118 2 0 41 16 87 35 79 34 94
36 97 14 1 -5 2 -11 3 -14 0 -3 20 15 44 41 23 26 64 67 90 93 27 25 112 108
190 184 119 116 146 137 167 133 13 -2 41 3 62 11 63 25 69 16 49 -69 -10 -41
-21 -80 -25 -86 -4 -6 -1 -22 6 -34 7 -13 12 -27 13 -33 0 -5 7 -10 16 -10 16
0 58 -35 42 -35 -4 0 12 -11 36 -25 23 -14 49 -25 57 -25 8 0 14 -4 14 -9 0
-5 12 -12 26 -15 18 -5 24 -11 20 -23 -6 -13 -4 -14 10 -3 10 9 18 10 22 4 8
-12 43 -28 55 -25 5 1 6 -8 2 -19 -5 -17 -3 -19 16 -11 16 5 33 3 53 -8 17 -9
32 -17 34 -18 2 0 5 -9 6 -18 1 -9 7 -20 12 -23 6 -4 14 -15 17 -26 6 -15 10
-16 22 -6 12 10 15 9 15 -4 0 -9 5 -16 10 -16 6 0 10 5 10 10 0 6 5 10 11 10
5 0 7 -5 3 -12 -5 -8 2 -9 24 -5 31 6 54 -6 65 -35 3 -9 13 -5 32 12 l28 25
-5 -27 c-6 -30 1 -35 20 -16 8 8 15 8 26 -2 13 -10 17 -9 22 4 8 20 18 20 38
1 13 -13 15 -13 21 5 5 15 15 20 41 20 19 0 34 5 34 10 0 7 6 7 20 0 14 -7 26
-8 39 0 11 5 27 7 35 4 9 -3 16 -1 16 5 0 6 5 11 10 11 6 0 23 8 37 17 14 10
39 16 55 14 23 -2 28 1 28 19 0 18 3 19 21 10 11 -7 23 -9 27 -6 3 3 0 6 -7 6
-7 0 -10 4 -7 9 3 5 15 7 26 4 11 -3 20 0 20 6 0 6 7 11 16 11 11 0 14 6 9 23
-5 17 -4 19 4 7 9 -12 12 -13 20 -1 5 8 10 9 12 3 6 -15 59 -2 59 15 0 10 5
11 19 4 22 -12 31 -5 31 22 0 16 5 18 27 14 37 -7 63 8 63 37 0 19 4 23 19 19
16 -4 21 2 26 31 4 20 12 36 18 36 6 0 7 3 4 7 -4 3 0 14 9 24 16 18 21 90 9
130 -7 22 -8 22 -21 4 -8 -10 -14 -29 -14 -43 0 -13 -4 -20 -10 -17 -13 8 -13
45 2 100 10 38 10 50 -5 80 -9 19 -21 35 -27 35 -7 0 -8 -6 -2 -17 7 -13 4
-23 -8 -36 -15 -16 -18 -16 -23 -2 -4 9 -1 15 8 15 10 0 13 9 9 36 -4 33 -3
35 13 23 14 -12 16 -12 11 1 -7 21 -33 19 -32 -2 1 -10 -2 -18 -6 -18 -5 0
-11 -8 -14 -17 -4 -14 -4 -14 -3 2 2 29 -11 45 -39 45 -14 0 -24 6 -24 15 0 9
6 12 17 8 13 -5 15 -2 11 15 -7 24 2 28 20 10 9 -9 15 -9 24 0 15 15 32 16 23
2 -3 -5 -1 -10 4 -10 15 0 14 16 -5 48 l-16 27 24 -27 c36 -42 56 -35 24 7
-29 38 -19 48 15 14 l21 -21 -7 22 c-5 17 -4 21 6 15 8 -4 3 2 -10 13 l-25 20
25 4 c17 2 23 8 21 22 -4 19 1 17 48 -26 18 -16 19 -16 17 2 -1 10 -4 17 -7
15 -6 -4 -40 30 -40 40 0 3 9 1 19 -5 26 -14 38 -13 23 2 -16 16 -15 29 2 22
8 -3 14 1 13 8 -2 46 1 50 31 31 l27 -17 -25 28 c-17 20 -21 30 -12 33 6 3 12
17 13 31 0 15 3 21 6 14 7 -18 23 -4 24 21 0 12 3 17 5 11 7 -17 44 -5 37 12
-4 10 0 12 13 7 18 -6 18 -6 0 15 -21 24 -16 28 15 12 23 -13 25 1 4 33 -20
32 -6 51 28 38 26 -10 27 -9 21 16 -5 18 -4 24 5 19 17 -11 13 6 -9 34 -12 16
-20 20 -20 11 0 -11 -4 -9 -15 5 -8 10 -14 24 -15 29 0 6 4 4 9 -3 5 -8 17
-12 27 -10 14 2 19 11 17 36 -1 17 2 32 7 32 5 0 9 12 9 28 1 49 5 72 14 72 8
0 4 148 -6 210 -2 14 -5 40 -5 59 -2 25 -6 32 -17 27 -13 -5 -15 1 -11 32 3
20 3 29 0 19 -5 -14 -12 -16 -40 -11 -22 4 -34 2 -34 -5 0 -15 -47 -14 -56 1
-5 8 -2 9 11 5 17 -7 45 7 45 23 0 4 -7 10 -14 13 -10 4 -13 1 -10 -7 4 -10
-2 -12 -20 -9 -20 4 -26 1 -26 -13 -1 -18 -1 -18 -11 -1 -12 21 8 46 31 39 11
-3 12 -2 4 8 -9 9 -17 9 -34 0 -17 -9 -24 -9 -30 0 -4 6 -10 11 -14 11 -24 -3
-46 0 -46 8 0 4 11 6 24 4 32 -6 51 25 29 46 -13 12 -14 11 -9 -7 4 -11 2 -23
-4 -27 -5 -3 -10 -2 -10 4 0 6 -7 8 -15 5 -8 -4 -15 -2 -15 4 0 6 5 12 12 14
8 3 6 7 -5 11 -9 3 -16 3 -16 -1 4 -22 -3 -32 -21 -32 -11 0 -20 5 -20 10 0 6
-6 10 -12 10 -14 1 -53 49 -45 56 2 2 16 -8 30 -22 21 -21 27 -23 27 -10 0 9
-4 16 -10 16 -5 0 -19 9 -30 20 l-21 21 -12 -31 c-10 -23 -16 -27 -25 -18 -7
7 -12 22 -12 35 0 13 -4 23 -9 23 -5 0 -12 11 -15 25 -4 14 -11 25 -17 25 -8
0 -7 -5 1 -15 18 -21 3 -19 -27 5 -14 11 -31 20 -38 20 -18 0 -59 47 -45 52 8
2 6 9 -6 18 -16 14 -17 13 -11 -2 3 -10 3 -18 -1 -18 -12 0 -12 -43 0 -60 6
-8 -2 -1 -18 16 -16 17 -36 29 -44 27 -11 -3 -12 -2 -3 4 9 7 7 16 -7 38 l-20
30 5 -40 c3 -22 3 -34 -1 -27 -6 14 -34 17 -34 3 0 -5 7 -11 15 -15 17 -6 21
-36 4 -36 -5 0 -8 4 -5 9 5 8 -25 40 -53 56 -10 6 -12 2 -7 -16 l6 -24 -11 23
c-7 12 -18 22 -24 22 -7 0 -18 7 -25 15 -7 8 -25 21 -40 28 -25 13 -27 13 -23
-4z m45 -26 c10 -9 18 -21 18 -27 0 -6 -5 -5 -12 2 -7 7 -20 12 -30 12 -11 0
-15 5 -12 15 8 19 13 19 36 -2z m268 -71 c0 -15 -2 -15 -10 -2 -13 20 -13 33
0 25 6 -3 10 -14 10 -23z m-790 14 c0 -3 -4 -8 -10 -11 -5 -3 -10 -1 -10 4 0
6 5 11 10 11 6 0 10 -2 10 -4z m-70 -29 c-14 -6 -27 -14 -30 -17 -10 -12 -51
-9 -47 3 2 7 15 12 30 12 14 1 29 4 33 8 4 4 14 7 23 6 10 0 6 -5 -9 -12z
m218 -75 c23 -49 45 -106 48 -128 5 -38 5 -38 -10 -14 -13 23 -20 25 -89 25
-55 0 -73 -3 -70 -12 3 -7 1 -13 -4 -13 -5 0 -15 6 -22 13 -11 10 -13 9 -8 -5
4 -11 1 -18 -6 -18 -14 0 -48 -36 -41 -43 3 -2 -2 -7 -10 -10 -27 -11 -25 8 4
40 16 17 48 71 72 120 39 79 73 130 88 132 3 1 25 -39 48 -87z m-113 52 c-9
-9 -19 -13 -23 -10 -3 4 0 11 8 16 24 15 33 11 15 -6z m-85 2 c0 -2 -7 -7 -16
-10 -8 -3 -12 -2 -9 4 6 10 25 14 25 6z m-104 -46 c-1 -34 -22 -41 -22 -7 0
17 11 35 22 37 1 0 1 -13 0 -30z m1064 -12 c0 -18 -23 -2 -32 22 -9 23 -8 23
12 5 11 -10 20 -22 20 -27z m80 -53 c0 -8 -2 -15 -4 -15 -2 0 -6 7 -10 15 -3
8 -1 15 4 15 6 0 10 -7 10 -15z m-3140 -23 c0 -13 -12 -22 -22 -16 -10 6 -1
24 13 24 5 0 9 -4 9 -8z m3227 -37 c2 -6 -5 -11 -15 -12 -10 -1 -19 5 -19 13
0 16 28 15 34 -1z m-3202 -25 c9 0 25 -9 37 -20 12 -11 30 -20 40 -20 17 0 65
-25 78 -40 6 -7 75 -40 84 -40 3 0 15 9 26 20 11 11 27 20 35 20 22 0 18 -28
-5 -35 -11 -3 -20 -10 -20 -15 0 -5 44 -30 98 -56 53 -27 105 -55 114 -64 10
-8 84 -49 165 -91 80 -41 148 -81 149 -87 1 -7 0 -8 -3 -2 -2 5 -13 10 -23 10
-10 0 -31 6 -47 14 -15 8 -82 40 -148 71 -66 31 -127 60 -135 66 -8 5 -26 14
-40 19 -23 10 -68 32 -115 57 -11 6 -51 26 -90 44 -38 18 -82 41 -96 50 -14
10 -37 21 -52 24 -15 4 -27 11 -27 15 0 5 -10 12 -22 16 -31 9 -72 42 -74 59
-2 13 2 12 26 0 16 -8 36 -15 45 -15z m3277 -9 c5 -4 -3 -7 -17 -6 -13 0 -30
6 -37 14 -11 11 -8 12 17 7 17 -4 33 -11 37 -15z m155 -48 c5 3 10 0 10 -8 0
-8 -11 -13 -29 -13 -30 1 -35 7 -16 26 9 9 14 9 19 1 4 -7 11 -9 16 -6z m38
-43 c3 -5 1 -10 -4 -10 -6 0 -11 5 -11 10 0 6 2 10 4 10 3 0 8 -4 11 -10z
m-15 -24 c0 -3 -4 -8 -10 -11 -5 -3 -10 -1 -10 4 0 6 5 11 10 11 6 0 10 -2 10
-4z m-3426 -22 c21 -20 20 -30 -4 -54 -16 -16 -25 -18 -40 -10 -25 13 -26 55
-2 69 23 14 28 14 46 -5z m-39 -175 c55 -10 120 -22 145 -25 25 -2 56 -9 70
-14 14 -6 45 -12 70 -14 42 -5 96 -17 215 -51 28 -8 73 -19 100 -25 28 -6 81
-17 118 -25 38 -8 78 -15 90 -15 12 0 33 -9 47 -20 l25 -19 -25 1 c-24 1 -180
34 -370 78 -47 11 -146 29 -220 41 -74 11 -142 24 -150 27 -8 3 -22 7 -30 8
-8 1 -46 9 -85 19 -38 9 -82 18 -97 19 -15 2 -34 8 -42 15 -32 27 -67 -36 -41
-75 25 -38 9 -78 -52 -131 -88 -77 -106 -83 -93 -30 4 17 16 69 25 114 20 90
32 107 92 129 51 18 90 17 208 -7z m1762 -41 c-3 -8 -6 -5 -6 6 -1 11 2 17 5
13 3 -3 4 -12 1 -19z m43 -9 c0 -11 -4 -17 -10 -14 -5 3 -10 13 -10 21 0 8 5
14 10 14 6 0 10 -9 10 -21z m1653 -134 c-3 -9 -8 -14 -10 -11 -3 3 -2 9 2 15
9 16 15 13 8 -4z m-2643 -115 c0 -5 -7 -7 -15 -4 -8 4 -15 8 -15 10 0 2 7 4
15 4 8 0 15 -4 15 -10z m1030 -27 c-10 -16 -11 -16 -6 0 5 14 1 16 -22 12
l-27 -6 25 15 c30 17 47 6 30 -21z m-845 3 c55 -16 38 -19 -42 -10 -29 4 -53
11 -53 15 0 13 38 11 95 -5z m888 -18 c-13 -59 -26 -88 -39 -88 -8 0 -14 5
-14 10 0 6 5 10 10 10 6 0 15 20 22 45 12 45 31 65 21 23z m-1488 -38 c4 -6
10 -8 15 -5 4 3 13 -1 19 -9 9 -11 6 -14 -16 -18 -35 -5 -63 1 -63 13 0 5 7 9
16 9 8 0 12 5 9 10 -3 6 -2 10 4 10 5 0 13 -5 16 -10z m-55 -16 c0 -2 -7 -4
-15 -4 -8 0 -15 4 -15 10 0 5 7 7 15 4 8 -4 15 -8 15 -10z m1800 2 c0 -2 -8
-10 -17 -17 -16 -13 -17 -12 -4 4 13 16 21 21 21 13z m-65 -48 c-19 -11 -95
-85 -95 -93 0 -8 -34 -39 -70 -65 -27 -19 -32 -20 -20 -5 26 33 50 55 60 55 6
0 10 5 10 11 0 30 113 129 129 113 3 -3 -3 -10 -14 -16z m-1610 -38 c3 -5 -13
-23 -37 -40 -42 -31 -69 -34 -139 -14 -17 5 -32 41 -23 56 7 11 192 10 199 -2z
m575 -30 c0 -12 -48 -25 -58 -16 -8 9 18 26 41 26 9 0 17 -4 17 -10z m114 -35
c-4 -9 0 -15 10 -15 37 0 6 -38 -38 -46 -14 -2 -37 -9 -51 -14 -15 -6 -42 -10
-61 -10 -56 0 -40 30 36 67 72 35 113 42 104 18z m-854 -45 c0 -5 -4 -10 -10
-10 -5 0 -10 5 -10 10 0 6 5 10 10 10 6 0 10 -4 10 -10z m1325 -108 c-4 -22
-21 -40 -60 -66 -63 -42 -65 -42 -65 -17 0 59 39 101 95 101 14 0 25 5 25 12
0 6 3 9 6 5 3 -3 3 -19 -1 -35z m-1231 9 c23 -11 56 -25 74 -31 42 -16 41 -33
-4 -49 -46 -17 -92 -8 -127 24 -28 27 -31 34 -21 59 8 21 28 20 78 -3z m651
-1 c-3 -5 -13 -10 -21 -10 -8 0 -14 5 -14 10 0 6 9 10 21 10 11 0 17 -4 14
-10z m215 -4 c0 -3 -4 -8 -10 -11 -5 -3 -10 -1 -10 4 0 6 5 11 10 11 6 0 10
-2 10 -4z m-320 -29 c0 -14 -40 -37 -65 -37 -23 0 -29 22 -10 37 24 17 75 17
75 0z m137 -41 c-3 -10 -29 -20 -164 -60 -25 -8 -43 -9 -43 -4 0 6 8 12 18 14
9 3 49 20 87 38 67 31 110 36 102 12z m175 -35 c-49 -43 -220 -136 -230 -125
-4 4 -1 9 6 11 7 3 45 30 85 60 113 87 226 131 139 54z m1858 29 c0 -5 -4 -10
-10 -10 -5 0 -10 5 -10 10 0 6 5 10 10 10 6 0 10 -4 10 -10z m-84 -124 c4 -47
-25 -87 -57 -79 -10 3 -16 9 -14 14 3 4 0 17 -7 28 -7 11 -9 24 -5 28 5 4 12
2 16 -6 6 -9 10 -7 14 9 4 15 11 21 21 17 19 -7 19 -6 7 26 -6 14 -7 28 -3 31
10 11 25 -25 28 -68z m-2816 19 c-6 -8 -8 -19 -4 -26 4 -7 2 -10 -7 -7 -19 6
-18 52 1 59 19 8 25 -7 10 -26z m2880 -19 c-1 -28 -2 -29 -12 -11 -17 28 -17
54 -1 48 7 -3 13 -19 13 -37z m-2182 -16 c-14 -22 -24 -25 -33 -10 -9 15 4 30
26 30 17 0 18 -3 7 -20z m2036 -39 c-7 -8 -35 9 -29 19 4 6 11 5 20 -3 7 -6
11 -14 9 -16z m-1934 15 c0 -2 -7 -7 -16 -10 -8 -3 -12 -2 -9 4 6 10 25 14 25
6z m1840 -46 c0 -5 -4 -10 -10 -10 -5 0 -10 5 -10 10 0 6 5 10 10 10 6 0 10
-4 10 -10z m-3027 -27 c-2 -7 4 -13 12 -13 16 0 20 -15 7 -24 -5 -3 -7 -23 -6
-46 3 -59 -18 -95 -56 -95 -16 0 -30 3 -30 8 0 12 -33 8 -62 -7 -23 -12 -28
-12 -28 -2 0 22 30 89 56 123 13 17 24 36 24 40 0 5 6 15 12 21 16 16 74 11
71 -5z m3311 -98 c3 -8 1 -15 -4 -15 -6 0 -10 7 -10 15 0 8 2 15 4 15 2 0 6
-7 10 -15z m-3154 -131 c0 -2 -5 -15 -12 -29 -11 -24 -9 -28 17 -49 33 -26 27
-46 -14 -46 -32 0 -63 47 -40 61 9 5 10 12 3 21 -14 18 -12 37 5 47 13 8 41 5
41 -5z m3060 -84 c0 -5 -2 -10 -4 -10 -3 0 -8 5 -11 10 -3 6 -1 10 4 10 6 0
11 -4 11 -10z m-2685 -130 c8 -13 -3 -50 -15 -50 -12 0 -23 37 -15 50 3 5 10
10 15 10 5 0 12 -5 15 -10z m282 -242 c-3 -8 -6 -5 -6 6 -1 11 2 17 5 13 3 -3
4 -12 1 -19z"/>
<path d="M2950 3149 c0 -5 5 -7 10 -4 6 3 10 8 10 11 0 2 -4 4 -10 4 -5 0 -10
-5 -10 -11z"/>
<path d="M2648 3143 c7 -3 16 -2 19 1 4 3 -2 6 -13 5 -11 0 -14 -3 -6 -6z"/>
<path d="M3240 3120 c20 -13 33 -13 25 0 -3 6 -14 10 -23 10 -15 0 -15 -2 -2
-10z"/>
<path d="M3330 3110 c0 -5 5 -10 11 -10 5 0 7 5 4 10 -3 6 -8 10 -11 10 -2 0
-4 -4 -4 -10z"/>
<path d="M0 2982 l0 -129 45 -6 c25 -4 63 -16 85 -27 45 -23 50 -24 50 -9 0 6
16 29 35 50 42 46 43 58 10 97 -31 37 -31 40 3 53 24 9 25 12 9 20 -9 6 -17
16 -17 23 0 15 -53 33 -125 41 -27 4 -60 9 -72 12 -23 5 -23 5 -23 -125z"/>
<path d="M2780 3080 c0 -5 4 -10 9 -10 6 0 13 5 16 10 3 6 -1 10 -9 10 -9 0
-16 -4 -16 -10z"/>
<path d="M3426 3081 c-3 -4 6 -13 19 -19 14 -7 25 -8 25 -4 0 12 -39 32 -44
23z"/>
<path d="M3480 3070 c0 -6 7 -10 15 -10 8 0 15 2 15 4 0 2 -7 6 -15 10 -8 3
-15 1 -15 -4z"/>
<path d="M355 3038 c9 -31 42 -58 72 -58 22 0 24 4 21 38 -3 37 -3 37 -51 40
-47 3 -48 2 -42 -20z"/>
<path d="M501 3013 c1 -53 8 -73 25 -73 8 0 14 8 15 18 0 9 2 27 5 40 4 23
-15 52 -35 52 -6 0 -10 -17 -10 -37z"/>
<path d="M3540 3015 c0 -9 7 -18 15 -22 23 -8 24 0 3 20 -15 14 -18 15 -18 2z"/>
<path d="M695 3010 c3 -5 10 -10 16 -10 5 0 9 5 9 10 0 6 -7 10 -16 10 -8 0
-12 -4 -9 -10z"/>
<path d="M1120 2978 c0 -26 26 -57 52 -62 52 -10 68 -7 68 13 0 19 -25 36 -48
32 -7 -1 -15 5 -18 13 -6 15 -54 19 -54 4z"/>
<path d="M633 2934 c2 -56 24 -77 58 -55 19 11 21 11 16 -3 -9 -22 47 -56 89
-56 17 0 37 -7 44 -15 7 -8 18 -15 24 -15 7 0 34 -11 62 -24 121 -58 207 -96
216 -96 5 0 8 15 6 33 -3 31 -2 32 35 31 l38 -1 -33 28 c-18 15 -44 33 -58 39
-14 7 -33 16 -42 21 -10 5 -27 9 -38 9 -12 0 -18 5 -15 10 3 6 -3 10 -15 10
-20 0 -38 25 -26 37 3 3 18 1 32 -6 44 -20 36 -7 -11 19 -39 21 -47 22 -69 11
-24 -13 -89 -8 -111 9 -16 12 -137 52 -172 56 l-32 4 2 -46z m425 -151 c-2
-10 -11 -17 -19 -15 -9 1 -8 -2 4 -12 12 -9 14 -16 8 -21 -6 -3 -11 -1 -11 4
0 6 -8 11 -18 11 -30 0 -33 11 -9 31 28 23 50 24 45 2z"/>
<path d="M3550 2971 c0 -5 5 -13 10 -16 6 -3 10 -2 10 4 0 5 -4 13 -10 16 -5
3 -10 2 -10 -4z"/>
<path d="M4903 2963 c-7 -2 -13 -13 -13 -24 0 -10 -5 -19 -12 -19 -6 0 -9 -3
-5 -6 3 -4 -22 -26 -56 -50 -34 -24 -89 -63 -122 -86 -43 -31 -55 -43 -42 -46
23 -5 12 -22 -15 -22 -30 0 -78 -38 -78 -63 0 -25 -35 -86 -59 -104 -24 -17
-6 -21 144 -27 92 -4 157 -12 223 -30 l92 -24 0 248 c-1 214 -3 249 -16 254
-18 7 -24 7 -41 -1z"/>
<path d="M591 2944 c0 -11 3 -14 6 -6 3 7 2 16 -1 19 -3 4 -6 -2 -5 -13z"/>
<path d="M1312 2918 c6 -18 28 -21 28 -4 0 9 -7 16 -16 16 -9 0 -14 -5 -12
-12z"/>
<path d="M3840 2850 c8 -5 22 -9 30 -9 10 0 8 3 -5 9 -27 12 -43 12 -25 0z"/>
<path d="M3890 2826 c0 -2 8 -10 18 -17 15 -13 16 -12 3 4 -13 16 -21 21 -21
13z"/>
<path d="M1182 2703 c3 -24 8 -28 41 -31 21 -2 37 1 37 7 0 6 -9 11 -20 11
-11 0 -25 9 -32 20 -18 28 -30 25 -26 -7z"/>
<path d="M1225 2640 c3 -5 30 -10 58 -10 41 0 56 -4 67 -20 15 -20 37 -29 25
-10 -4 7 3 9 22 4 l28 -6 -34 26 c-30 22 -45 26 -104 26 -43 0 -66 -4 -62 -10z"/>
<path d="M2073 2584 c4 -4 -3 -15 -15 -25 -11 -11 -16 -19 -10 -19 16 0 43 30
37 41 -4 5 -9 9 -12 9 -4 0 -3 -3 0 -6z"/>
<path d="M1228 2573 c7 -3 16 -2 19 1 4 3 -2 6 -13 5 -11 0 -14 -3 -6 -6z"/>
<path d="M1462 2560 c7 -11 16 -20 20 -20 5 0 8 -4 8 -9 0 -5 -33 -7 -72 -6
-40 2 -65 1 -55 -1 9 -3 17 -10 17 -15 0 -6 4 -8 8 -5 4 2 39 -11 76 -30 38
-19 76 -34 85 -34 14 0 14 -2 1 -11 -11 -7 2 -8 45 -4 33 4 68 9 78 11 21 6
23 32 2 40 -8 4 -13 10 -10 14 8 12 -41 67 -59 67 -9 0 -16 -4 -16 -9 0 -14
-40 -9 -80 12 -22 11 -44 20 -50 20 -6 0 -6 -7 2 -20z m58 -20 c0 -5 -5 -10
-11 -10 -5 0 -7 5 -4 10 3 6 8 10 11 10 2 0 4 -4 4 -10z"/>
<path d="M1310 2546 c0 -2 7 -6 15 -10 8 -3 15 -1 15 4 0 6 -7 10 -15 10 -8 0
-15 -2 -15 -4z"/>
<path d="M4510 2482 c0 -5 53 -12 118 -15 98 -6 242 -30 314 -53 13 -4 16 -1
12 9 -5 14 -73 35 -182 57 -63 12 -262 14 -262 2z"/>
<path d="M4537 2442 c-20 -4 -22 -30 -4 -53 7 -9 54 -28 105 -42 51 -15 143
-50 205 -77 62 -28 116 -50 120 -50 4 0 7 37 5 82 l-3 82 -114 28 c-103 25
-262 40 -314 30z"/>
<path d="M2210 2350 c-9 -6 -10 -10 -3 -10 6 0 15 5 18 10 8 12 4 12 -15 0z"/>
<path d="M4544 2339 c-3 -5 2 -12 12 -16 16 -6 16 -7 -1 -19 -9 -7 -14 -18
-10 -24 4 -7 2 -16 -4 -20 -8 -5 -3 -13 16 -25 22 -15 50 -19 138 -21 145 -2
159 -5 163 -34 3 -16 0 -21 -10 -18 -8 3 -22 0 -33 -8 -24 -18 -134 -18 -157
0 -10 7 -15 16 -12 19 9 8 -37 34 -73 42 -29 6 -34 4 -43 -20 -8 -20 -7 -32 2
-44 7 -9 13 -17 14 -19 1 -1 59 -23 130 -47 129 -44 181 -55 169 -34 -14 22
59 60 91 48 24 -8 34 10 34 63 0 24 -9 32 -71 63 -133 68 -342 134 -355 114z"/>
<path d="M3950 2272 c0 -12 19 -26 26 -19 2 2 -2 10 -11 17 -9 8 -15 8 -15 2z"/>
<path d="M4500 2140 c8 -5 20 -10 25 -10 6 0 3 5 -5 10 -8 5 -19 10 -25 10 -5
0 -3 -5 5 -10z"/>
<path d="M4500 2110 c24 -8 24 -8 3 -9 -28 -1 -28 -5 -2 -42 16 -23 28 -29 58
-29 49 0 56 8 29 37 -12 13 -16 23 -10 23 6 0 17 -9 25 -20 7 -10 26 -24 42
-30 40 -15 139 -25 131 -12 -7 11 -128 54 -214 76 -65 16 -107 20 -62 6z"/>
<path d="M2235 2040 c-3 -6 1 -7 9 -4 18 7 21 14 7 14 -6 0 -13 -4 -16 -10z"/>
<path d="M2090 2020 c-8 -5 -10 -10 -5 -10 6 0 17 5 25 10 8 5 11 10 5 10 -5
0 -17 -5 -25 -10z"/>
<path d="M2129 1993 c-13 -17 -13 -17 6 -3 11 8 22 16 24 17 2 2 0 3 -6 3 -6
0 -17 -8 -24 -17z"/>
<path d="M3815 1980 c3 -5 8 -10 11 -10 2 0 4 5 4 10 0 6 -5 10 -11 10 -5 0
-7 -4 -4 -10z"/>
<path d="M4450 1950 c-7 -5 -19 -6 -27 -3 -18 7 -16 -4 8 -43 20 -33 55 -64
71 -64 9 0 10 55 2 87 -6 23 -34 35 -54 23z"/>
<path d="M4949 1946 c-2 -2 -87 -6 -189 -9 -150 -4 -184 -7 -182 -18 8 -32 55
-101 75 -108 12 -5 87 -10 167 -12 l145 -4 3 69 c3 61 -5 95 -19 82z"/>
<path d="M2255 1930 c-3 -5 3 -10 14 -10 12 0 21 5 21 10 0 6 -6 10 -14 10 -8
0 -18 -4 -21 -10z"/>
<path d="M4534 1874 c2 -27 5 -52 5 -55 1 -11 61 -5 61 6 0 18 -45 88 -58 93
-10 3 -12 -7 -8 -44z"/>
<path d="M2184 1885 c-18 -13 -18 -14 4 -8 12 3 25 9 28 14 8 14 -10 11 -32
-6z"/>
<path d="M4366 1889 c4 -8 -1 -9 -17 -5 -24 6 -24 6 2 -15 15 -12 45 -29 67
-39 l41 -18 -8 21 c-4 12 -23 32 -41 45 -35 24 -55 29 -44 11z"/>
<path d="M4359 1831 c25 -23 41 -27 41 -11 0 6 -3 9 -7 8 -5 -1 -19 3 -33 10
l-25 13 24 -20z"/>
<path d="M3695 1831 c-3 -6 3 -9 14 -8 11 0 17 5 15 9 -7 11 -22 10 -29 -1z"/>
<path d="M3670 1701 c0 -5 5 -13 10 -16 6 -3 10 -2 10 4 0 5 -4 13 -10 16 -5
3 -10 2 -10 -4z"/>
<path d="M234 529 c-3 -5 -13 -9 -23 -9 -15 0 -18 -8 -17 -42 1 -35 -2 -43
-19 -46 -16 -3 -17 -1 -5 7 12 9 10 11 -12 11 -20 0 -30 -7 -39 -29 -8 -17
-24 -32 -36 -36 -13 -3 -30 -16 -39 -30 -21 -32 -38 -32 -30 0 4 14 2 25 -4
25 -6 0 -10 -68 -10 -190 l0 -190 274 0 c210 0 276 3 279 13 4 9 6 9 6 0 1
-16 81 -18 81 -2 0 5 -10 9 -22 7 -15 -2 -24 3 -26 15 -2 10 3 17 11 17 8 0
17 9 20 20 3 12 14 20 26 20 12 0 21 6 21 14 0 8 6 17 13 19 6 3 -2 6 -19 6
-28 1 -31 4 -32 32 -1 38 -12 52 -13 18 -1 -13 -2 -31 -3 -39 0 -8 4 -19 9
-23 6 -5 2 -7 -8 -5 -15 2 -19 13 -21 55 -1 28 2 49 6 47 4 -2 10 16 13 41 5
28 12 45 21 45 9 0 14 11 14 30 0 23 -5 30 -19 30 -11 0 -22 4 -25 9 -12 18
-104 41 -128 32 -13 -6 -19 -10 -14 -10 5 -1 -6 -15 -25 -31 -18 -17 -35 -26
-37 -21 -2 6 -16 8 -32 5 -33 -7 -80 20 -80 45 0 9 -6 23 -12 30 -11 10 -9 15
7 27 35 26 15 83 -32 90 -7 1 -15 -2 -19 -7z m10 -95 c5 -14 4 -15 -9 -4 -17
14 -19 20 -6 20 5 0 12 -7 15 -16z m16 -44 c0 -5 -2 -10 -4 -10 -3 0 -8 5 -11
10 -3 6 -1 10 4 10 6 0 11 -4 11 -10z m-22 -43 l22 -13 -20 -21 c-11 -13 -16
-24 -10 -28 6 -3 10 -1 10 4 0 6 6 11 14 11 7 0 19 6 26 14 14 18 54 6 56 -15
2 -34 5 -40 13 -35 4 3 6 18 4 33 l-4 28 16 -28 c14 -24 14 -33 3 -63 -10 -29
-17 -35 -36 -31 -12 2 -21 2 -18 -1 7 -6 -20 -32 -34 -32 -7 0 -9 7 -6 16 5
12 1 14 -16 8 -16 -5 -20 -3 -15 9 3 8 0 18 -8 21 -8 3 -11 13 -8 24 3 12 -1
22 -10 25 -19 7 -11 47 9 47 8 0 14 5 14 10 0 6 -9 10 -19 10 -11 0 -23 5 -26
10 -9 14 15 12 43 -3z m67 3 c3 -5 -1 -10 -9 -10 -8 0 -18 5 -21 10 -3 6 1 10
9 10 8 0 18 -4 21 -10z m-225 -20 c0 -5 -4 -10 -10 -10 -5 0 -10 5 -10 10 0 6
5 10 10 10 6 0 10 -4 10 -10z m-30 -31 c0 -11 -4 -17 -10 -14 -13 8 -13 35 0
35 6 0 10 -9 10 -21z m85 -19 c-10 -11 -23 -16 -29 -12 -7 4 -5 8 7 10 9 2 17
8 17 13 0 5 5 9 12 9 6 0 3 -8 -7 -20z m55 10 c0 -5 -2 -10 -4 -10 -3 0 -8 5
-11 10 -3 6 -1 10 4 10 6 0 11 -4 11 -10z m407 -42 c-3 -7 -5 -2 -5 12 0 14 2
19 5 13 2 -7 2 -19 0 -25z m-30 -10 c-3 -8 -6 -5 -6 6 -1 11 2 17 5 13 3 -3 4
-12 1 -19z m5 -56 c-18 -6 -14 -20 6 -24 15 -3 14 -5 -5 -16 -18 -10 -25 -8
-45 8 l-23 19 23 -6 c18 -4 21 -2 16 11 -3 9 -14 16 -23 17 -9 0 -3 6 14 14
26 11 31 11 39 -3 6 -10 5 -17 -2 -20z m-425 2 c16 -18 22 -32 17 -46 -5 -17
-3 -20 14 -16 15 4 19 2 15 -9 -3 -8 -12 -12 -19 -9 -8 3 -14 1 -14 -4 0 -6
-12 -10 -26 -10 -18 0 -28 6 -31 20 -4 13 -11 19 -22 16 -19 -6 -49 10 -38 20
4 4 12 3 19 -4 15 -15 49 3 42 23 -4 8 -1 15 5 15 6 0 11 5 11 11 0 5 -4 7
-10 4 -5 -3 -10 -1 -10 4 0 19 22 12 47 -15z m258 16 c-3 -5 1 -10 9 -10 9 0
16 -4 16 -10 0 -5 -7 -10 -15 -10 -8 0 -15 6 -15 13 0 8 -4 7 -10 -3 -5 -8
-10 -10 -10 -4 0 5 5 15 12 22 15 15 21 16 13 2z m-55 -20 c0 -5 -5 -10 -11
-10 -5 0 -7 5 -4 10 3 6 8 10 11 10 2 0 4 -4 4 -10z m145 0 c3 -5 1 -10 -4
-10 -6 0 -11 5 -11 10 0 6 2 10 4 10 3 0 8 -4 11 -10z m-165 -30 c0 -5 -2 -10
-4 -10 -3 0 -8 5 -11 10 -3 6 -1 10 4 10 6 0 11 -4 11 -10z m-90 -39 c0 11 2
11 10 -1 9 -13 11 -13 20 0 7 12 12 12 21 3 10 -10 8 -18 -10 -37 -27 -28 -44
-25 -60 10 -15 33 -14 39 4 24 12 -10 15 -10 15 1z m70 -45 c0 -3 -4 -8 -10
-11 -5 -3 -10 -1 -10 4 0 6 5 11 10 11 6 0 10 -2 10 -4z"/>
<path d="M305 300 c-3 -5 -1 -10 4 -10 6 0 11 5 11 10 0 6 -2 10 -4 10 -3 0
-8 -4 -11 -10z"/>
<path d="M0 474 c0 -8 5 -12 10 -9 6 4 8 11 5 16 -9 14 -15 11 -15 -7z"/>
<path d="M6 434 c-10 -25 -7 -34 9 -34 8 0 15 2 15 4 0 2 3 11 6 19 3 8 -1 17
-10 20 -8 3 -17 -1 -20 -9z"/>
<path d="M67 430 c3 -11 12 -20 21 -20 13 0 12 3 -3 20 -10 11 -19 20 -21 20
-1 0 0 -9 3 -20z"/>
<path d="M734 305 c-19 -14 -19 -14 0 -15 11 0 16 -3 13 -7 -6 -6 21 -32 34
-33 4 0 7 11 7 25 0 33 -29 49 -54 30z"/>
<path d="M807 283 c-3 -5 6 -9 19 -9 13 -1 24 2 24 7 0 11 -37 12 -43 2z"/>
<path d="M1007 233 c-4 -3 -7 -20 -7 -37 1 -34 29 -80 37 -58 3 6 9 12 15 12
5 0 16 6 24 14 7 8 19 16 26 18 10 4 9 8 -2 19 -36 33 -78 47 -93 32z"/>
<path d="M690 150 c0 -5 7 -10 15 -10 8 0 15 5 15 10 0 6 -7 10 -15 10 -8 0
-15 -4 -15 -10z"/>
<path d="M1220 130 c0 -23 3 -24 47 -8 45 16 42 28 -7 28 -33 0 -40 -3 -40
-20z"/>
<path d="M846 133 c-7 -8 -11 -9 -37 -12 -6 0 -8 -9 -5 -19 5 -15 0 -17 -40
-13 -39 3 -45 6 -41 22 7 26 -1 24 -13 -3 -6 -13 -16 -31 -22 -41 -11 -14 -10
-19 0 -26 7 -4 10 -15 6 -24 -10 -26 19 -21 44 8 l22 25 -23 1 c-15 1 -11 4
13 10 47 11 67 4 79 -29 6 -17 10 -21 10 -9 1 9 9 17 18 17 15 0 14 2 -3 16
-17 14 -17 15 -1 10 10 -3 21 -6 23 -6 2 0 4 -7 4 -15 0 -8 -4 -15 -10 -15 -5
0 -10 -7 -10 -15 0 -12 13 -15 58 -15 54 0 59 2 58 21 -1 12 4 24 10 26 6 2
10 -7 10 -19 -1 -17 5 -24 22 -26 23 -4 31 13 10 21 -10 4 -9 8 2 16 12 8 12
13 -5 31 -13 14 -22 17 -29 10 -15 -15 -36 -12 -36 5 0 9 -6 12 -15 9 -8 -4
-22 -1 -31 6 -11 10 -18 10 -26 2 -14 -14 -28 -16 -28 -3 0 5 12 14 28 20 20
8 21 10 5 7 -13 -2 -23 0 -23 5 0 11 -14 12 -24 2z"/>
<path d="M1807 123 c-10 -10 -8 -23 4 -23 5 0 8 4 5 9 -4 5 0 12 6 14 7 3 8 6
2 6 -6 1 -14 -2 -17 -6z"/>
<path d="M1823 66 c3 -8 1 -17 -6 -20 -7 -2 -4 -5 6 -5 11 -1 17 6 17 19 0 11
-5 20 -11 20 -6 0 -9 -6 -6 -14z"/>
<path d="M637 39 c7 -7 15 -10 18 -7 3 3 -2 9 -12 12 -14 6 -15 5 -6 -5z"/>
<path d="M1080 20 c0 -11 4 -20 9 -20 5 0 7 9 4 20 -3 11 -7 20 -9 20 -2 0 -4
-9 -4 -20z"/>
<path d="M1810 10 c0 -5 7 -10 16 -10 8 0 12 5 9 10 -3 6 -10 10 -16 10 -5 0
-9 -4 -9 -10z"/>
</g>
</svg>
